<svg xmlns="http://www.w3.org/2000/svg" width="214" height="94" viewBox="0 0 214 94"><g transform="translate(-267 -233)"><g transform="translate(7)"><g transform="translate(265 317)" fill="#707070" stroke="#fff" stroke-width="0.5"><rect width="17" height="10" stroke="none"/><rect x="0.25" y="0.25" width="16.5" height="9.5" fill="none"/></g><g transform="translate(282 317)" fill="#b4b4b4" stroke="#fff" stroke-width="0.5"><rect width="17" height="10" stroke="none"/><rect x="0.25" y="0.25" width="16.5" height="9.5" fill="none"/></g><g transform="translate(299 317)" fill="#707070" stroke="#fff" stroke-width="0.5"><rect width="17" height="10" stroke="none"/><rect x="0.25" y="0.25" width="16.5" height="9.5" fill="none"/></g><g transform="translate(367 317)" fill="#707070" stroke="#fff" stroke-width="0.5"><rect width="17" height="10" stroke="none"/><rect x="0.25" y="0.25" width="16.5" height="9.5" fill="none"/></g><g transform="translate(384 317)" fill="#b4b4b4" stroke="#fff" stroke-width="0.5"><rect width="17" height="10" stroke="none"/><rect x="0.25" y="0.25" width="16.5" height="9.5" fill="none"/></g><g transform="translate(401 317)" fill="#707070" stroke="#fff" stroke-width="0.5"><rect width="17" height="10" stroke="none"/><rect x="0.25" y="0.25" width="16.5" height="9.5" fill="none"/></g><g transform="translate(316 317)" fill="#b4b4b4" stroke="#fff" stroke-width="0.5"><rect width="17" height="10" stroke="none"/><rect x="0.25" y="0.25" width="16.5" height="9.5" fill="none"/></g><g transform="translate(333 317)" fill="#707070" stroke="#fff" stroke-width="0.5"><rect width="17" height="10" stroke="none"/><rect x="0.25" y="0.25" width="16.5" height="9.5" fill="none"/></g><g transform="translate(350 317)" fill="#b4b4b4" stroke="#fff" stroke-width="0.5"><rect width="17" height="10" stroke="none"/><rect x="0.25" y="0.25" width="16.5" height="9.5" fill="none"/></g><g transform="translate(418 317)" fill="#b4b4b4" stroke="#fff" stroke-width="0.5"><rect width="17" height="10" stroke="none"/><rect x="0.25" y="0.25" width="16.5" height="9.5" fill="none"/></g><g transform="translate(435 317)" fill="#707070" stroke="#fff" stroke-width="0.5"><rect width="17" height="10" stroke="none"/><rect x="0.25" y="0.25" width="16.5" height="9.5" fill="none"/></g><g transform="translate(452 317)" fill="#b4b4b4" stroke="#fff" stroke-width="0.5"><rect width="17" height="10" stroke="none"/><rect x="0.25" y="0.25" width="16.5" height="9.5" fill="none"/></g></g><text transform="translate(267 295)" fill="#707070" font-size="57" font-family="SegoeUI-Semibold, Segoe UI" font-weight="600"><tspan x="0" y="0">quik</tspan><tspan y="0" fill="#b4b4b4" font-family="SegoeUI, Segoe UI" font-weight="400">grid</tspan></text></g></svg>